<svg width="32" height="22" viewBox="0 0 32 22" fill="none" xmlns="http://www.w3.org/2000/svg">
<g clip-path="url(#clip0_964_17642)" filter="url(#filter0_d_964_17642)">
<path d="M28.0004 2.46548C27.1188 2.85141 26.1594 3.12917 25.1711 3.23735C26.1971 2.61879 26.9655 1.64156 27.332 0.489007C26.3692 1.07022 25.3145 1.47778 24.2146 1.6936C23.7549 1.19488 23.1989 0.797581 22.5813 0.526453C21.9636 0.255325 21.2976 0.116179 20.6247 0.117688C17.902 0.117688 15.7123 2.3573 15.7123 5.10564C15.7123 5.49158 15.7584 5.87752 15.8333 6.24884C11.7565 6.03248 8.12048 4.05601 5.7032 1.0299C5.26274 1.79335 5.03193 2.66261 5.03477 3.54727C5.03477 5.27814 5.902 6.80435 7.22444 7.70195C6.44511 7.6708 5.68402 7.45342 5.00308 7.06749V7.12889C5.00308 9.5527 6.69143 11.5613 8.94161 12.0233C8.51912 12.1347 8.08449 12.1916 7.64797 12.1929C7.32817 12.1929 7.02565 12.1607 6.72024 12.1168C7.34257 14.0933 9.15482 15.5289 11.3128 15.5757C9.62444 16.9177 7.50968 17.7071 5.2134 17.7071C4.8014 17.7071 4.42108 17.6925 4.02637 17.6457C6.20452 19.0637 8.78891 19.8824 11.5721 19.8824C20.6074 19.8824 25.5514 12.2864 25.5514 5.69332C25.5514 5.47696 25.5514 5.2606 25.537 5.04424C26.4936 4.33377 27.332 3.45371 28.0004 2.46548Z" fill="#21A6DF"/>
</g>
<defs>
<filter id="filter0_d_964_17642" x="0" y="0.117676" width="32" height="27.7646" filterUnits="userSpaceOnUse" color-interpolation-filters="sRGB">
<feFlood flood-opacity="0" result="BackgroundImageFix"/>
<feColorMatrix in="SourceAlpha" type="matrix" values="0 0 0 0 0 0 0 0 0 0 0 0 0 0 0 0 0 0 127 0" result="hardAlpha"/>
<feOffset dy="4"/>
<feGaussianBlur stdDeviation="2"/>
<feComposite in2="hardAlpha" operator="out"/>
<feColorMatrix type="matrix" values="0 0 0 0 0 0 0 0 0 0 0 0 0 0 0 0 0 0 0.25 0"/>
<feBlend mode="normal" in2="BackgroundImageFix" result="effect1_dropShadow_964_17642"/>
<feBlend mode="normal" in="SourceGraphic" in2="effect1_dropShadow_964_17642" result="shape"/>
</filter>
<clipPath id="clip0_964_17642">
<rect width="24" height="19.7647" fill="white" transform="translate(4 0.117676)"/>
</clipPath>
</defs>
</svg>
