<svg width="28" height="21" viewBox="0 0 28 21" fill="none" xmlns="http://www.w3.org/2000/svg">
<g clip-path="url(#clip0_964_17644)" filter="url(#filter0_d_964_17644)">
<path d="M27.4699 2.93166C27.3335 2.3987 27.0663 1.91276 26.6951 1.52249C26.324 1.13221 25.8619 0.851291 25.355 0.707834C23.4884 0.176636 15.9879 0.176636 15.9879 0.176636C15.9879 0.176636 8.48729 0.176636 6.62071 0.707834C6.11385 0.851291 5.65172 1.13221 5.28057 1.52249C4.90941 1.91276 4.64225 2.3987 4.50582 2.93166C4.15729 4.93335 3.98815 6.96501 4.00064 8.99993C3.98815 11.0348 4.15729 13.0665 4.50582 15.0682C4.64225 15.6012 4.90941 16.0871 5.28057 16.4774C5.65172 16.8676 6.11385 17.1486 6.62071 17.292C8.48729 17.8232 15.9879 17.8232 15.9879 17.8232C15.9879 17.8232 23.4884 17.8232 25.355 17.292C25.8619 17.1486 26.324 16.8676 26.6951 16.4774C27.0663 16.0871 27.3335 15.6012 27.4699 15.0682C27.8184 13.0665 27.9876 11.0348 27.9751 8.99993C27.9876 6.96501 27.8184 4.93335 27.4699 2.93166ZM13.5904 12.7813V5.21852L19.8152 8.99993L13.5904 12.7813Z" fill="#E42F08"/>
</g>
<defs>
<filter id="filter0_d_964_17644" x="0" y="0.157837" width="32" height="25.6842" filterUnits="userSpaceOnUse" color-interpolation-filters="sRGB">
<feFlood flood-opacity="0" result="BackgroundImageFix"/>
<feColorMatrix in="SourceAlpha" type="matrix" values="0 0 0 0 0 0 0 0 0 0 0 0 0 0 0 0 0 0 127 0" result="hardAlpha"/>
<feOffset dy="4"/>
<feGaussianBlur stdDeviation="2"/>
<feComposite in2="hardAlpha" operator="out"/>
<feColorMatrix type="matrix" values="0 0 0 0 0 0 0 0 0 0 0 0 0 0 0 0 0 0 0.25 0"/>
<feBlend mode="normal" in2="BackgroundImageFix" result="effect1_dropShadow_964_17644"/>
<feBlend mode="normal" in="SourceGraphic" in2="effect1_dropShadow_964_17644" result="shape"/>
</filter>
<clipPath id="clip0_964_17644">
<rect width="24" height="17.6842" fill="white" transform="translate(4 0.157837)"/>
</clipPath>
</defs>
</svg>
