<svg width="73" height="72" viewBox="0 0 73 72" fill="none" xmlns="http://www.w3.org/2000/svg">
<path d="M36 42C43.9968 42 50.5 35.721 50.5 28C50.5 20.279 43.9968 14 36 14C28.0032 14 21.5 20.279 21.5 28C21.5 35.721 28.0032 42 36 42ZM36 21C39.9984 21 43.25 24.1395 43.25 28C43.25 31.8605 39.9984 35 36 35C32.0016 35 28.75 31.8605 28.75 28C28.75 24.1395 32.0016 21 36 21Z" fill="white"/>
<path d="M34.4338 71.3403C35.0367 71.7693 35.7591 72 36.5 72C37.2409 72 37.9633 71.7693 38.5662 71.3403C39.6492 70.577 65.103 52.2624 64.9997 29.4002C64.9997 13.7411 52.214 1 36.5 1C20.786 1 8.00031 13.7411 8.00031 29.3825C7.897 52.2624 33.3508 70.577 34.4338 71.3403ZM36.5 8.10006C48.2882 8.10006 57.8748 17.6532 57.8748 29.418C57.9496 45.173 42.2427 59.3199 36.5 63.9598C30.7609 59.3163 15.0504 45.1659 15.1252 29.4002C15.1252 17.6532 24.7118 8.10006 36.5 8.10006Z" fill="white"/>
</svg>
