<svg width="89" height="20" viewBox="0 0 89 20" fill="none" xmlns="http://www.w3.org/2000/svg">
<path d="M11.696 19L8.456 14.32H8.264H4.88V19H0.992V2.2H8.264C9.752 2.2 11.04 2.448 12.128 2.944C13.232 3.44 14.08 4.144 14.672 5.056C15.264 5.968 15.56 7.048 15.56 8.296C15.56 9.544 15.256 10.624 14.648 11.536C14.056 12.432 13.208 13.12 12.104 13.6L15.872 19H11.696ZM11.624 8.296C11.624 7.352 11.32 6.632 10.712 6.136C10.104 5.624 9.216 5.368 8.048 5.368H4.88V11.224H8.048C9.216 11.224 10.104 10.968 10.712 10.456C11.32 9.944 11.624 9.224 11.624 8.296ZM31.1244 12.592C31.1244 12.64 31.1004 12.976 31.0524 13.6H21.2844C21.4604 14.4 21.8764 15.032 22.5324 15.496C23.1884 15.96 24.0044 16.192 24.9804 16.192C25.6524 16.192 26.2444 16.096 26.7564 15.904C27.2844 15.696 27.7724 15.376 28.2204 14.944L30.2124 17.104C28.9964 18.496 27.2204 19.192 24.8844 19.192C23.4284 19.192 22.1404 18.912 21.0204 18.352C19.9004 17.776 19.0364 16.984 18.4284 15.976C17.8204 14.968 17.5164 13.824 17.5164 12.544C17.5164 11.28 17.8124 10.144 18.4044 9.136C19.0124 8.112 19.8364 7.32 20.8764 6.76C21.9324 6.184 23.1084 5.896 24.4044 5.896C25.6684 5.896 26.8124 6.168 27.8364 6.712C28.8604 7.256 29.6604 8.04 30.2364 9.064C30.8284 10.072 31.1244 11.248 31.1244 12.592ZM24.4284 8.728C23.5804 8.728 22.8684 8.968 22.2924 9.448C21.7164 9.928 21.3644 10.584 21.2364 11.416H27.5964C27.4684 10.6 27.1164 9.952 26.5404 9.472C25.9644 8.976 25.2604 8.728 24.4284 8.728ZM33.7171 1.192H37.4611V19H33.7171V1.192ZM53.8518 6.088L48.4038 19H44.5398L39.1158 6.088H42.9798L46.5558 14.872L50.2518 6.088H53.8518ZM55.4796 6.088H59.2236V19H55.4796V6.088ZM57.3516 4.288C56.6636 4.288 56.1036 4.088 55.6716 3.688C55.2396 3.288 55.0236 2.792 55.0236 2.2C55.0236 1.608 55.2396 1.112 55.6716 0.711999C56.1036 0.311999 56.6636 0.111999 57.3516 0.111999C58.0396 0.111999 58.5996 0.303999 59.0316 0.688C59.4636 1.072 59.6796 1.552 59.6796 2.128C59.6796 2.752 59.4636 3.272 59.0316 3.688C58.5996 4.088 58.0396 4.288 57.3516 4.288ZM67.1423 19.192C66.0703 19.192 65.0223 19.064 63.9983 18.808C62.9743 18.536 62.1583 18.2 61.5503 17.8L62.7983 15.112C63.3743 15.48 64.0703 15.784 64.8863 16.024C65.7023 16.248 66.5023 16.36 67.2863 16.36C68.8703 16.36 69.6623 15.968 69.6623 15.184C69.6623 14.816 69.4463 14.552 69.0143 14.392C68.5823 14.232 67.9183 14.096 67.0223 13.984C65.9663 13.824 65.0943 13.64 64.4063 13.432C63.7183 13.224 63.1183 12.856 62.6063 12.328C62.1103 11.8 61.8623 11.048 61.8623 10.072C61.8623 9.256 62.0943 8.536 62.5583 7.912C63.0383 7.272 63.7263 6.776 64.6223 6.424C65.5343 6.072 66.6063 5.896 67.8383 5.896C68.7503 5.896 69.6543 6 70.5503 6.208C71.4623 6.4 72.2143 6.672 72.8063 7.024L71.5583 9.688C70.4223 9.048 69.1823 8.728 67.8383 8.728C67.0383 8.728 66.4383 8.84 66.0383 9.064C65.6383 9.288 65.4383 9.576 65.4383 9.928C65.4383 10.328 65.6543 10.608 66.0863 10.768C66.5183 10.928 67.2063 11.08 68.1503 11.224C69.2063 11.4 70.0703 11.592 70.7423 11.8C71.4143 11.992 71.9983 12.352 72.4943 12.88C72.9903 13.408 73.2383 14.144 73.2383 15.088C73.2383 15.888 72.9983 16.6 72.5183 17.224C72.0383 17.848 71.3343 18.336 70.4063 18.688C69.4943 19.024 68.4063 19.192 67.1423 19.192ZM88.2963 12.592C88.2963 12.64 88.2723 12.976 88.2243 13.6H78.4563C78.6323 14.4 79.0483 15.032 79.7043 15.496C80.3603 15.96 81.1763 16.192 82.1523 16.192C82.8243 16.192 83.4163 16.096 83.9283 15.904C84.4563 15.696 84.9443 15.376 85.3923 14.944L87.3843 17.104C86.1683 18.496 84.3923 19.192 82.0563 19.192C80.6003 19.192 79.3123 18.912 78.1923 18.352C77.0723 17.776 76.2083 16.984 75.6003 15.976C74.9923 14.968 74.6883 13.824 74.6883 12.544C74.6883 11.28 74.9843 10.144 75.5763 9.136C76.1843 8.112 77.0083 7.32 78.0483 6.76C79.1043 6.184 80.2803 5.896 81.5763 5.896C82.8403 5.896 83.9843 6.168 85.0083 6.712C86.0323 7.256 86.8323 8.04 87.4083 9.064C88.0003 10.072 88.2963 11.248 88.2963 12.592ZM81.6003 8.728C80.7523 8.728 80.0403 8.968 79.4643 9.448C78.8883 9.928 78.5363 10.584 78.4083 11.416H84.7683C84.6403 10.6 84.2883 9.952 83.7123 9.472C83.1363 8.976 82.4323 8.728 81.6003 8.728Z" fill="#252B42"/>
</svg>
